<svg width="340" height="340" viewBox="0 0 340 340" fill="none" xmlns="http://www.w3.org/2000/svg">
<rect width="340" height="340" fill="white"/>
<path d="M81.5 49L97 109L109 132L126.5 151.5L153.5 174L177 179.5L213 162L240 132L248.5 120V97.5L250.5 70.5L238.5 60.5L222 63.5L211 80.5L209 103.5L213 116" stroke="black" stroke-linecap="round"/>
<path d="M204 120L195.5 118.5L186 120.5L178 121.5L168.5 120.5L160 119L153.5 118.5L146 120L141.5 122L147.5 124.5L152 128L156.5 133L162.5 135.5L170 136.5L177 135.5L184.5 136.5L190.5 135.5L197 131.5L204 123.5L208.5 117.5L200.5 116.5L191.5 115.5L182.5 113.5L174 113L164 114.5L155 116.5L145 117.5L138 117L147.5 111L156.5 104.5L162.5 101L167.5 102.5L173 104.5L179.5 103.5L186 102.5H191.5L194.5 104.5L199.5 109.5L207 114" stroke="black" stroke-linecap="round"/>
<path d="M209.5 122.5L214 128.5L216.5 135L213 144L206 152.5L197 159.5L187.5 152.5L177 148.5H167.5L155.5 152.5L147.5 162L141 174.5L129.5 167.5L121.5 157.5L113 148.5V162V190.5V207.5L106 219L94.5 227.5L83.5 234.5L101 241L114.5 249.5L125 263.5L139 281L158 299L177 305.5H191L206 297.5L219.5 281L229.5 259.5L239 243.5L253.5 237H257L250.5 221.5L241 193L239 170V146.5L232 157.5L224 165.5L216.5 174.5L200 190.5L190 205L181.5 226.5L178.5 252.5V281V299" stroke="black" stroke-linecap="round"/>
</svg>
